<?xml version="1.0" encoding="UTF-8"?>
<svg version="1.1" xmlns="http://www.w3.org/2000/svg" width="513" height="70">
<path d="M0 0 C-2.79652912 2.5422992 -4.71768485 3.92562144 -8.41015625 4.8984375 C-12.86772215 6.26626512 -15.18108799 8.40536052 -18.4375 11.625 C-18.97826172 12.140625 -19.51902344 12.65625 -20.07617188 13.1875 C-21.39453072 14.44752438 -22.69878046 15.7222836 -24 17 C-23.67 17.33 -23.34 17.66 -23 18 C-21.68 18 -20.36 18 -19 18 C-19.375 20.375 -19.375 20.375 -21 23 C-23.18359375 23.56640625 -23.18359375 23.56640625 -25.8125 23.9375 C-30.2504283 24.60361246 -30.2504283 24.60361246 -33.5625 27.75 C-34.09617187 28.53503906 -34.09617187 28.53503906 -34.640625 29.3359375 C-37.37949196 32.68868843 -41.34485219 34.75435364 -45 37 C-36.58807963 37.10094304 -28.35600408 37.10102642 -20 36 C-20.03222656 35.443125 -20.06445312 34.88625 -20.09765625 34.3125 C-20.03778357 30.374208 -19.64135996 27.84020955 -17.2109375 24.65625 C-13.67590859 21.30343907 -10.52864247 18.65739936 -5.625 17.875 C-2 18 -2 18 1 20 C1 20.66 1 21.32 1 22 C2.32 22 3.64 22 5 22 C5.495 20.515 5.495 20.515 6 19 C7.7634375 19.0309375 7.7634375 19.0309375 9.5625 19.0625 C12.51353067 19.08861532 14.80378379 18.83924324 17.75 18.25 C21 18 21 18 23.5 19.5625 C25 22 25 22 24.9375 24.8125 C23.88578978 28.38831475 22.55712691 31.61494151 21 35 C23.47867376 32.77774076 24.98662537 31.02791226 26.4375 28 C28.71325328 23.63055371 32.34061411 20.64448914 37 19 C40.6875 18.8125 40.6875 18.8125 44 19 C45 20 45 20 45.375 22.3125 C45 25 45 25 42.9375 27.0625 C40.72823972 28.51967167 38.56610805 29.80177314 36.25 31.0625 C32.74671384 32.67162578 32.74671384 32.67162578 32 36 C37.21533554 34.05703186 40.11440843 32.10762538 44 28 C44.66 28 45.32 28 46 28 C46.375 30.1875 46.375 30.1875 46 33 C42.70556311 36.29443689 39.59381265 38.85154684 35 40 C31.1199299 39.68959439 29.27046125 39.1803075 26 37 C25.29875 37.495 24.5975 37.99 23.875 38.5 C20.57896166 40.21967218 18.6663563 40.48884751 15 40 C13 37 13 37 13.1875 34.1875 C14.04735893 30.81420728 15.39220911 28.07577388 17 25 C17 24.34 17 23.68 17 23 C10.63242681 27.34858657 7.60822636 33.30663334 4 40 C2.02 39.505 2.02 39.505 0 39 C-0.5497272 33.36529617 1.04952165 30.61012242 4 26 C1.71262722 26.8781143 1.71262722 26.8781143 0.8125 29.6875 C-1.46386814 33.84775901 -3.90849224 36.57392006 -8 39 C-10.17163497 39.58284438 -12.13685701 39.75337986 -14.3828125 39.85546875 C-17.45733194 40.02525564 -20.40192472 40.54722337 -23.4375 41.0625 C-37.41147658 43.06308007 -51.10675096 42.11995081 -65 40 C-64.67 39.01 -64.34 38.02 -64 37 C-62.28515625 36.48046875 -62.28515625 36.48046875 -60.0625 36.1875 C-51.27180955 34.49644508 -44.4705553 28.90789832 -38 23 C-40.64 22.67 -43.28 22.34 -46 22 C-46.66 23.32 -47.32 24.64 -48 26 C-48.33 26 -48.66 26 -49 26 C-49.3621134 20.56829897 -49.3621134 20.56829897 -47.90234375 18.27734375 C-45.03402606 16.35138916 -42.75986924 17.04315007 -39.375 17.375 C-34.00291618 17.52574853 -34.00291618 17.52574853 -29.32421875 15.18359375 C-27.82605527 13.61298022 -26.37485756 11.99608556 -24.9765625 10.3359375 C-22.33096156 7.20931821 -19.40217003 5.24398449 -16 3 C-32.44791202 1.10994063 -53.8271226 -1.3075472 -68 9 C-70.32579101 12.48868651 -70.41865457 13.89718519 -70 18 C-69.03126968 19.35622245 -68.03565785 20.69417053 -67 22 C-67.33 22.99 -67.66 23.98 -68 25 C-71.38231081 23.60042311 -73.27928642 22.26935579 -75 19 C-75.50996055 13.64541423 -75.48241808 10.32300176 -72 6 C-55.02433991 -10.97566009 -20.81003607 -3.51999546 0 0 Z M-10 25 C-10.66 26.0725 -11.32 27.145 -12 28.25 C-12.37125 28.85328125 -12.7425 29.4565625 -13.125 30.078125 C-14.27624023 32.25479385 -14.27624023 32.25479385 -14 36 C-10.68470727 35.01437243 -9.25050621 34.34552581 -7.1875 31.5 C-5.85698106 29.16019062 -5.85698106 29.16019062 -6 27 C-7.32 26.34 -8.64 25.68 -10 25 Z " fill="#000000" transform="translate(417,15)"/>
<path d="M0 0 C5.37623375 1.45077131 9.7556388 1.32664441 15.21582031 0.59960938 C20.13383656 0.14586383 24.17740171 1.27619979 28.34082031 3.98242188 C28.83582031 4.43617187 29.33082031 4.88992187 29.84082031 5.35742188 C29.51082031 7.00742187 29.18082031 8.65742188 28.84082031 10.35742188 C20.97092298 12.02220785 14.26864942 10.23083304 6.74707031 7.63476562 C4.14766645 7.25657367 2.86685263 8.0431041 0.59082031 9.29492188 C-0.46878906 9.86533203 -0.46878906 9.86533203 -1.54980469 10.44726562 C-2.08089844 10.74761719 -2.61199219 11.04796875 -3.15917969 11.35742188 C-3.03542969 12.47117187 -3.03542969 12.47117187 -2.90917969 13.60742188 C-3.15917969 16.35742188 -3.15917969 16.35742188 -4.78417969 18.54492188 C-7.15917969 20.35742188 -7.15917969 20.35742188 -10.22167969 21.10742188 C-13.51355123 22.50821828 -13.78191776 22.90276148 -15.09667969 26.04492188 C-16.33635809 30.07937822 -16.28807445 33.24501951 -15.15917969 37.35742188 C-13.46969665 39.64760999 -12.56131449 40.27946359 -9.74121094 40.82617188 C-2.83219076 40.90412979 1.50816224 39.81608136 6.84082031 35.35742188 C7.58332031 34.61492188 8.32582031 33.87242188 9.09082031 33.10742188 C10.84082031 31.35742188 10.84082031 31.35742188 12.90332031 30.91992188 C15.08949648 30.53175221 15.08949648 30.53175221 16.09082031 28.10742188 C18.56045864 24.22656164 21.65853291 22.20683704 25.84082031 20.35742188 C29.72635887 19.97523775 32.15618814 20.12921115 35.84082031 21.35742188 C37.84040395 21.3982297 39.84127285 21.39996544 41.84082031 21.35742188 C42.50082031 21.35742188 43.16082031 21.35742188 43.84082031 21.35742188 C44.50082031 20.69742188 45.16082031 20.03742187 45.84082031 19.35742188 C48.96582031 19.73242188 48.96582031 19.73242188 51.84082031 20.35742188 C51.84082031 21.34742187 51.84082031 22.33742188 51.84082031 23.35742188 C54.15082031 22.36742188 56.46082031 21.37742187 58.84082031 20.35742188 C59.83082031 22.33742188 59.83082031 22.33742188 60.84082031 24.35742188 C60.38191406 24.70933594 59.92300781 25.06125 59.45019531 25.42382812 C55.00209226 29.00286903 52.39345793 32.25214664 49.84082031 37.35742188 C53.37682496 35.44606801 55.63054878 33.73099422 57.84082031 30.35742188 C59.82082031 30.85242187 59.82082031 30.85242187 61.84082031 31.35742188 C60.2357723 35.5305467 57.45477071 38.77941787 53.84082031 41.35742188 C50.91626829 42.36360045 49.02372963 42.40960072 45.84082031 42.35742188 C43.43597427 40.88348398 42.99747952 39.94192276 42.27441406 37.24414062 C42.13132812 36.62152344 41.98824219 35.99890625 41.84082031 35.35742188 C40.97457031 36.32679687 40.10832031 37.29617187 39.21582031 38.29492188 C36.22342353 41.28027773 34.17174552 42.26527453 29.84082031 42.35742188 C28.16927131 42.04950495 26.50276484 41.71355285 24.84082031 41.35742188 C23.48607366 41.4307248 22.13188673 41.51484894 20.77832031 41.60742188 C16.84082031 41.35742188 16.84082031 41.35742188 14.34082031 38.85742188 C13.84582031 38.03242187 13.35082031 37.20742188 12.84082031 36.35742188 C12.27234375 36.83953125 11.70386719 37.32164063 11.11816406 37.81835938 C4.46017661 43.26479319 -1.17916324 45.88600347 -9.88183594 45.67773438 C-14.74994673 44.99302582 -18.74855297 42.85905677 -22.09667969 39.29492188 C-25.24895485 33.54665541 -24.37315171 27.5790285 -23.15917969 21.35742188 C-24.27292969 20.77992187 -25.38667969 20.20242187 -26.53417969 19.60742188 C-29.62957737 18.00240086 -30.97697365 16.67366137 -32.15917969 13.35742188 C-32.35309926 8.19546743 -31.48126141 3.41774398 -28.15917969 -0.64257812 C-20.0369273 -5.87856315 -8.60058311 -2.45259067 0 0 Z M-24.15917969 2.35742188 C-26.07654618 4.82260737 -26.21286156 6.73319496 -26.65917969 9.85742188 C-26.52540062 13.62360197 -26.52540062 13.62360197 -23.15917969 15.79492188 C-22.16917969 16.31054688 -21.17917969 16.82617188 -20.15917969 17.35742188 C-19.21042969 16.49117187 -18.26167969 15.62492187 -17.28417969 14.73242188 C-13.53988924 11.49453137 -9.50443904 9.0740933 -5.19824219 6.65429688 C-3.02483419 5.51765452 -3.02483419 5.51765452 -2.15917969 3.35742188 C-4.24119496 2.85196152 -6.32485036 2.35325352 -8.40917969 1.85742188 C-9.56933594 1.57898438 -10.72949219 1.30054688 -11.92480469 1.01367188 C-16.62019374 0.06098424 -19.92362846 0.12818439 -24.15917969 2.35742188 Z M11.84082031 4.35742188 C14.95992887 6.15018053 17.51764459 6.70032905 21.09082031 6.98242188 C21.98285156 7.0571875 22.87488281 7.13195312 23.79394531 7.20898438 C24.80714844 7.28246094 24.80714844 7.28246094 25.84082031 7.35742188 C25.51082031 6.69742187 25.18082031 6.03742187 24.84082031 5.35742188 C21.82591474 4.35245335 19.79900339 4.25406885 16.65332031 4.29492188 C15.75226563 4.30394531 14.85121094 4.31296875 13.92285156 4.32226562 C12.89224609 4.33966797 12.89224609 4.33966797 11.84082031 4.35742188 Z M40.84082031 23.35742188 C39.52063443 25.10163101 38.20993429 26.85302279 36.90332031 28.60742188 C35.80697266 30.06921875 35.80697266 30.06921875 34.68847656 31.56054688 C33.08736952 33.98420997 32.26445793 35.53317107 31.84082031 38.35742188 C36.36130259 34.86488488 39.86700773 31.90876978 41.84082031 26.35742188 C41.51082031 25.36742187 41.18082031 24.37742187 40.84082031 23.35742188 Z M25.27050781 25.67773438 C21.98219156 29.4948251 20.09598131 32.12662152 19.84082031 37.35742188 C22.80109107 37.04025001 23.82510304 36.37313915 25.96582031 34.23242188 C28.14143859 30.89647386 28.93370558 28.21265947 29.84082031 24.35742188 C26.88158755 24.03564726 26.88158755 24.03564726 25.27050781 25.67773438 Z M44.84082031 28.35742188 C44.51082031 29.67742188 44.18082031 30.99742188 43.84082031 32.35742188 C44.83082031 31.69742188 45.82082031 31.03742187 46.84082031 30.35742188 C46.84082031 29.69742188 46.84082031 29.03742187 46.84082031 28.35742188 C46.18082031 28.35742188 45.52082031 28.35742188 44.84082031 28.35742188 Z M42.84082031 32.35742188 C43.84082031 34.35742188 43.84082031 34.35742188 43.84082031 34.35742188 Z " fill="#000000" transform="translate(266.1591796875,12.642578125)"/>
<path d="M0 0 C29.42721478 -1.04852348 29.42721478 -1.04852348 40 6 C42.38084294 6.40990867 42.38084294 6.40990867 45.05078125 6.52734375 C46.55402954 6.62958252 46.55402954 6.62958252 48.08764648 6.73388672 C49.15184814 6.8010791 50.2160498 6.86827148 51.3125 6.9375 C77.33836942 8.85989832 77.33836942 8.85989832 87 15 C89 18 89 18 88.625 21.1875 C88.41875 22.115625 88.2125 23.04375 88 24 C78.63250185 24.1820896 69.3412692 23.61326035 60 23 C60.495 22.05125 60.99 21.1025 61.5 20.125 C63.14424369 17.27721834 63.14424369 17.27721834 63 15 C55.75467437 12.28108816 48.80359803 11.03928753 41.125 10.1875 C39.94059326 10.04844238 38.75618652 9.90938477 37.53588867 9.76611328 C30.17429878 9.00839773 23.59315545 9.15088414 16.3125 10.375 C8.96950798 11.59047162 8.96950798 11.59047162 5.0625 9.2109375 C0 3.67382812 0 3.67382812 0 0 Z " fill="#000000" transform="translate(129,13)"/>
<path d="M0 0 C1.53636108 0.00193359 1.53636108 0.00193359 3.10375977 0.00390625 C4.19100342 0.01679687 5.27824707 0.0296875 6.3984375 0.04296875 C7.50823975 0.04941406 8.61804199 0.05585937 9.76147461 0.0625 C19.11975476 0.14874522 28.43997188 0.5629412 37.7734375 1.23046875 C37.81071582 2.66907305 37.83730175 4.10795708 37.859375 5.546875 C37.88330322 6.74872437 37.88330322 6.74872437 37.90771484 7.97485352 C37.66344153 12.07820102 35.57399385 14.4299124 32.7734375 17.23046875 C29.42687702 17.95376965 25.99492624 18.13490391 22.5859375 18.41796875 C21.57176758 18.50401367 20.55759766 18.59005859 19.51269531 18.67871094 C11.99038021 19.23669122 4.55812622 19.29153112 -2.9765625 18.98046875 C-3.95778076 18.94203857 -4.93899902 18.9036084 -5.94995117 18.86401367 C-12.83415211 18.49207568 -12.83415211 18.49207568 -16.2265625 16.23046875 C-16.2265625 15.57046875 -16.2265625 14.91046875 -16.2265625 14.23046875 C-15.44756592 14.23570557 -14.66856934 14.24094238 -13.8659668 14.24633789 C5.02017077 14.38027014 5.02017077 14.38027014 23.8984375 13.91796875 C24.66583252 13.89549072 25.43322754 13.8730127 26.22387695 13.84985352 C29.14954634 13.70126199 31.26803629 13.5854773 33.703125 11.875 C34.95751505 10.09898198 34.95751505 10.09898198 35.7734375 7.23046875 C18.2834375 7.23046875 0.7934375 7.23046875 -17.2265625 7.23046875 C-17.5565625 5.58046875 -17.8865625 3.93046875 -18.2265625 2.23046875 C-17.62328125 2.25367188 -17.02 2.276875 -16.3984375 2.30078125 C-15.59921875 2.31882813 -14.8 2.336875 -13.9765625 2.35546875 C-12.79320312 2.39027344 -12.79320312 2.39027344 -11.5859375 2.42578125 C-9.22771969 2.39154194 -9.22771969 2.39154194 -7.40576172 1.23266602 C-4.77317391 0.02195876 -2.89122081 -0.01302812 0 0 Z M35.7734375 5.23046875 C36.7734375 7.23046875 36.7734375 7.23046875 36.7734375 7.23046875 Z " fill="#000000" transform="translate(185.2265625,38.76953125)"/>
<path d="M0 0 C-0.66 1.98 -1.32 3.96 -2 6 C0.475 6.99 0.475 6.99 3 8 C1.66666667 8.66666667 0.33333333 9.33333333 -1 10 C-1.68578125 10.35320313 -2.3715625 10.70640625 -3.078125 11.0703125 C-8.45613393 13.68193554 -12.06631052 14.1945472 -18 14 C-19.0725 14.37125 -20.145 14.7425 -21.25 15.125 C-24 16 -24 16 -26.1875 15.125 C-26.785625 14.75375 -27.38375 14.3825 -28 14 C-28.99 14 -29.98 14 -31 14 C-30.09126425 17.05665662 -29.32469175 18.72305703 -26.875 20.8125 C-23.16774911 22.3437558 -19.90880771 22.83972485 -16 22 C-14.02375948 20.8118554 -12.35714517 19.53346254 -10.640625 17.99609375 C-9 17 -9 17 -6.796875 17.34765625 C-6.20390625 17.56292969 -5.6109375 17.77820313 -5 18 C-6.6998232 19.15842044 -8.41029577 20.30122266 -10.125 21.4375 C-11.55199219 22.39462891 -11.55199219 22.39462891 -13.0078125 23.37109375 C-16.16701394 25.09092012 -18.41841521 25.80075308 -22 26 C-24.08984375 25.2578125 -24.08984375 25.2578125 -25.9375 24.125 C-29.6776788 22.08425605 -32.65967681 21.07891497 -37 21 C-38.155 21.495 -39.31 21.99 -40.5 22.5 C-44.65063384 24.27884308 -46.68745732 24.22053095 -51 23 C-53.4375 20.9375 -53.4375 20.9375 -55 19 C-53.700625 19.5259375 -53.700625 19.5259375 -52.375 20.0625 C-46.01971519 21.82785689 -40.89497151 19.33766112 -35 17 C-37.85324437 15.57337781 -39.83454549 15.68966132 -43 16 C-44.1446875 17.0209375 -44.1446875 17.0209375 -45.3125 18.0625 C-48.42247316 20.30457367 -49.14984832 20.17921699 -52.8125 19.75 C-54.21204454 19.52168931 -55.60960943 19.27868395 -57 19 C-57 18.34 -57 17.68 -57 17 C-53.56484998 16.37542727 -50.50935186 16 -47 16 C-46.525625 15.50628906 -46.05125 15.01257812 -45.5625 14.50390625 C-44 13 -44 13 -41.625 12.77734375 C-40.325625 12.85662109 -40.325625 12.85662109 -39 12.9375 C-34.75114389 13.19437765 -34.75114389 13.19437765 -31 11 C-27.58453106 11.36334776 -24.31362249 12.10787087 -21 13 C-20.731875 12.38125 -20.46375 11.7625 -20.1875 11.125 C-18.48458808 8.07768394 -16.53710271 7.15868944 -13.25 6.1875 C-9.79069313 4.92352249 -7.46754428 3.29372487 -4.61328125 1.0234375 C-3 0 -3 0 0 0 Z M-7 7 C-3 8 -3 8 -3 8 Z M-16 9 C-16 9.66 -16 10.32 -16 11 C-10.98464948 10.67039784 -10.98464948 10.67039784 -7 8 C-10.11227195 8 -12.94152152 8.45627049 -16 9 Z " fill="#FF0000" transform="translate(107,21)"/>
<path d="M0 0 C6 6.07964602 6 6.07964602 6 10 C-0.86598846 13.43299423 -11.41612422 12.15407423 -19 12 C-19.36905024 5.48011238 -19.36905024 5.48011238 -17.75390625 3.37890625 C-12.77779323 -0.5332717 -5.9486191 -2.13252383 0 0 Z " fill="#000000" transform="translate(128,15)"/>
<path d="M0 0 C0.763125 0.34160156 1.52625 0.68320312 2.3125 1.03515625 C5.80026857 2.28730572 8.80153818 2.26479385 12.5 2.25 C14.43359375 2.25773437 14.43359375 2.25773437 16.40625 2.265625 C19.7523621 2.01830367 22.00689053 1.4505069 25 0 C23.54476505 4.60824402 23.54476505 4.60824402 21.38671875 6.16015625 C18.0460562 7.3356758 15.09275926 7.14996926 11.5625 7.0625 C7.19209587 6.96267945 3.25403687 6.94263823 -1 8 C-1 7.34 -1 6.68 -1 6 C-2.11375 6.309375 -2.11375 6.309375 -3.25 6.625 C-6 7 -6 7 -7.9375 6 C-10.85360111 4.5861328 -12.91695337 5.29930758 -16 6 C-15.01946718 3.41495894 -14.02862665 2.02515675 -11.9375 0.1875 C-7.78600154 -1.49076533 -4.309823 -0.98151791 0 0 Z " fill="#FF0000" transform="translate(80,46)"/>
<path d="M0 0 C4.01968879 3.67758762 5.61209109 6.56927531 6 12 C5.34 11.67 4.68 11.34 4 11 C4 10.34 4 9.68 4 9 C-0.77573323 6.38104952 -4.84434881 7.16880569 -10 8 C-12.32086397 13.324335 -11.91457003 17.43842552 -11 23 C-11.99 22.67 -12.98 22.34 -14 22 C-15.1875 18.4375 -15.1875 18.4375 -16 15 C-16.66 15.66 -17.32 16.32 -18 17 C-17.37136929 5.83638575 -17.37136929 5.83638575 -14 2 C-9.40583119 -1.20523405 -5.24035513 -1.94087227 0 0 Z M-10 4 C-6.535 3.505 -6.535 3.505 -3 3 C-3 2.67 -3 2.34 -3 2 C-6.95457848 1.65176193 -6.95457848 1.65176193 -10 4 Z M-12 4 C-12 4.99 -12 5.98 -12 7 C-11.34 6.01 -10.68 5.02 -10 4 C-10.66 4 -11.32 4 -12 4 Z M-15 8 C-14 10 -14 10 -14 10 Z " fill="#000000" transform="translate(159,29)"/>
<path d="M0 0 C-0.66 1.98 -1.32 3.96 -2 6 C0.475 6.99 0.475 6.99 3 8 C1.66666667 8.66666667 0.33333333 9.33333333 -1 10 C-1.68578125 10.35320313 -2.3715625 10.70640625 -3.078125 11.0703125 C-8.45613393 13.68193554 -12.06631052 14.1945472 -18 14 C-18.969375 14.391875 -19.93875 14.78375 -20.9375 15.1875 C-25.46018516 16.38739606 -28.78313898 14.74296922 -33 13 C-32.34 12.34 -31.68 11.68 -31 11 C-27.5882874 11.37083833 -24.31098205 12.10858176 -21 13 C-20.731875 12.38125 -20.46375 11.7625 -20.1875 11.125 C-18.48458808 8.07768394 -16.53710271 7.15868944 -13.25 6.1875 C-9.79069313 4.92352249 -7.46754428 3.29372487 -4.61328125 1.0234375 C-3 0 -3 0 0 0 Z M-7 7 C-3 8 -3 8 -3 8 Z M-16 9 C-16 9.66 -16 10.32 -16 11 C-10.98464948 10.67039784 -10.98464948 10.67039784 -7 8 C-10.11227195 8 -12.94152152 8.45627049 -16 9 Z " fill="#FF0000" transform="translate(107,21)"/>
<path d="M0 0 C8.21858338 -0.09836071 16.41627171 -0.0809329 24.625 0.375 C25.89601562 0.44460937 27.16703125 0.51421875 28.4765625 0.5859375 C31.95135287 0.99428315 34.78907634 1.61581883 38 3 C38.66 3.99 39.32 4.98 40 6 C31.4615069 6.38160863 23.31640374 4.92501616 14.9375 3.5 C13.48513597 3.25845268 12.03266259 3.0175619 10.58007812 2.77734375 C7.05209255 2.19245988 3.52566975 1.59870465 0 1 C0 0.67 0 0.34 0 0 Z " fill="#000000" transform="translate(103,54)"/>
<path d="M0 0 C1.39456452 0.00667256 2.78911118 0.01863093 4.18359375 0.03515625 C4.89451172 0.03966797 5.60542969 0.04417969 6.33789062 0.04882812 C8.09899388 0.06064761 9.86005411 0.07858362 11.62109375 0.09765625 C10.54708267 3.01282917 9.84299199 4.87575801 7.62109375 7.09765625 C4.36328125 7.29296875 4.36328125 7.29296875 0.49609375 7.22265625 C-1.42589844 7.19558594 -1.42589844 7.19558594 -3.38671875 7.16796875 C-4.86785156 7.13316406 -4.86785156 7.13316406 -6.37890625 7.09765625 C-4.15199463 0.11999984 -4.15199463 0.11999984 0 0 Z " fill="#FF0000" transform="translate(176.37890625,28.90234375)"/>
<path d="M0 0 C1.5 1.375 1.5 1.375 3 3 C3 3.66 3 4.32 3 5 C12.9 5.33 22.8 5.66 33 6 C33 6.66 33 7.32 33 8 C28.78253675 8.0989211 24.56568879 8.17149012 20.34741211 8.21972656 C18.91272214 8.23983525 17.47811407 8.26712673 16.04370117 8.30175781 C13.98075161 8.3503146 11.91888569 8.37297406 9.85546875 8.390625 C8.61434326 8.41157227 7.37321777 8.43251953 6.09448242 8.45410156 C3 8 3 8 1.0715332 6.22558594 C0 4 0 4 0 0 Z " fill="#000000" transform="translate(105,38)"/>
<path d="M0 0 C-0.5 2.8125 -0.5 2.8125 -2 6 C-5.69438536 8.14827695 -9.88066732 8.99325726 -14 10 C-12.75239752 6.25719257 -11.3305368 5.52850153 -8.125 3.3125 C-7.24070312 2.68988281 -6.35640625 2.06726563 -5.4453125 1.42578125 C-3 0 -3 0 0 0 Z " fill="#000000" transform="translate(107,21)"/>
<path d="M0 0 C0.33 0.66 0.66 1.32 1 2 C-2.38757921 4.08466413 -5.05273438 4.42905061 -9 4 C-9.66 3.01 -10.32 2.02 -11 1 C-7.27569643 0.30710631 -3.78916254 -0.11144596 0 0 Z " fill="#FF0000" transform="translate(62,46)"/>
<path d="M0 0 C2 1 2 1 2 1 Z " fill="#000000" transform="translate(101,53)"/>
<path d="" fill="#FF0000" transform="translate(0,0)"/>
<path d="" fill="#000000" transform="translate(0,0)"/>
</svg>
